<svg xmlns="http://www.w3.org/2000/svg" width="24" height="24" viewBox="0 0 24 24">
  <g id="Group_201" data-name="Group 201" transform="translate(-60 -261)">
    <rect id="Rectangle_202" data-name="Rectangle 202" width="24" height="24" transform="translate(60 261)" fill="none"/>
    <g id="pie-chart" transform="translate(61.621 262.667)">
      <path id="Path_240" data-name="Path 240" d="M167,87.106h-.606V95.5l-4.977,6.747.488.36a8.588,8.588,0,1,0,5.1-15.5Z" transform="translate(-154.874 -83.585)" fill="#59d6d6"/>
      <path id="Path_241" data-name="Path 241" d="M2.492,118.691a11.5,11.5,0,0,0-1.38,1.862,8.587,8.587,0,0,0,.832,9.626,10.921,10.921,0,0,0,2.05,1.85l5.429-7.36Z" transform="translate(0 -113.893)" fill="#59d6d6"/>
      <path id="Path_242" data-name="Path 242" d="M86.984,0A8.356,8.356,0,0,0,83.4.65a8.366,8.366,0,0,0-2.835,2.293L86.984,8.48Z" transform="translate(-77.291)" fill="#59d6d6"/>
    </g>
  </g>
</svg>
