<svg xmlns="http://www.w3.org/2000/svg" width="24" height="24" viewBox="0 0 24 24">
  <g id="Group_223" data-name="Group 223" transform="translate(-23 -565)">
    <rect id="Rectangle_204" data-name="Rectangle 204" width="24" height="24" transform="translate(23 565)" fill="none"/>
    <g id="blog" transform="translate(24.5 567)">
      <path id="Path_262" data-name="Path 262" d="M19.154,0H1.846A1.848,1.848,0,0,0,0,1.846V4.922H21V1.846A1.848,1.848,0,0,0,19.154,0ZM3.938,3.076h-.82a.615.615,0,0,1,0-1.23h.82a.615.615,0,0,1,0,1.23Zm3.281,0H6.4a.615.615,0,0,1,0-1.23h.82a.615.615,0,0,1,0,1.23Zm3.281,0H9.68a.615.615,0,0,1,0-1.23h.82a.615.615,0,0,1,0,1.23Z" fill="#59d6d6"/>
      <path id="Path_263" data-name="Path 263" d="M73.075,337.739a.7.7,0,0,0-.694-.694h-.989v1.39l.989,0A.7.7,0,0,0,73.075,337.739Z" transform="translate(-68.464 -323.221)" fill="#59d6d6"/>
      <path id="Path_264" data-name="Path 264" d="M72.707,291.532a.534.534,0,0,0-.534-.534h-.781v1.068h.781A.534.534,0,0,0,72.707,291.532Z" transform="translate(-68.464 -279.063)" fill="#59d6d6"/>
      <circle id="Ellipse_31" data-name="Ellipse 31" cx="1.641" cy="1.641" r="1.641" transform="translate(9.329 11.935)" fill="#59d6d6"/>
      <path id="Path_265" data-name="Path 265" d="M0,163a1.848,1.848,0,0,0,1.846,1.846H19.154A1.848,1.848,0,0,0,21,163V150H0Zm16.712-8.039a2.449,2.449,0,0,1,1.376.421.41.41,0,0,1-.459.68,1.641,1.641,0,1,0-.917,3,1.324,1.324,0,0,0,1.325-1.23h-.781a.41.41,0,0,1,0-.82h1.227a.41.41,0,0,1,.41.41,2.232,2.232,0,0,1-2.18,2.461,2.461,2.461,0,1,1,0-4.922Zm-5.742,0a2.461,2.461,0,1,1-2.461,2.461A2.464,2.464,0,0,1,10.969,154.963Zm-4.717.41a.41.41,0,0,1,.82,0v3.691l1.024,0h0a.41.41,0,0,1,0,.82l-1,0a4.032,4.032,0,0,1-.506-.01.41.41,0,0,1-.341-.4Zm-4.144,0a.41.41,0,0,1,.41-.41H3.709a1.353,1.353,0,0,1,1.082,2.167,1.513,1.513,0,0,1-.874,2.75c-.3,0-1.387,0-1.4,0h0a.41.41,0,0,1-.41-.41v-4.1Z" transform="translate(0 -143.848)" fill="#59d6d6"/>
    </g>
  </g>
</svg>
