<svg xmlns="http://www.w3.org/2000/svg" width="24" height="24" viewBox="0 0 24 24">
  <g id="Group_221" data-name="Group 221" transform="translate(-2448 613)">
    <rect id="Rectangle_132" data-name="Rectangle 132" width="24" height="24" transform="translate(2448 -613)" fill="none"/>
    <g id="team_2_" data-name="team(2)" transform="translate(2449 -612)">
      <path id="Path_248" data-name="Path 248" d="M64.949,92.29l.189.109v1.2l-.863.216,2,1.167-.014.7-.031.107,1.183-.263v-.281a1.887,1.887,0,0,1,.543-1.322l-1.3-.325V92.4l.19-.11a1.9,1.9,0,0,0,.949-1.641v-.663A1.961,1.961,0,0,0,65.955,88,1.9,1.9,0,0,0,64,89.891v.759A1.9,1.9,0,0,0,64.949,92.29Zm0,0" transform="translate(-60.966 -83.822)" fill="#717171"/>
      <path id="Path_249" data-name="Path 249" d="M118.27,4.232a4.926,4.926,0,0,1,8.366-.022c.015-.015.029-.032.044-.047a2.644,2.644,0,0,1,.8-.532l.43-1.007L126.7,1.412l-1.067.694-.2-.125a5.66,5.66,0,0,0-1.642-.681l-.234-.056L123.29,0h-1.661l-.263,1.244-.233.056a5.666,5.666,0,0,0-1.642.681l-.2.125-1.067-.694-1.212,1.212.426,1.015a2.683,2.683,0,0,1,.836.594Zm0,0" transform="translate(-111.46)" fill="#717171"/>
      <path id="Path_250" data-name="Path 250" d="M0,184v6.933l1.628.543L3,185.97Zm0,0" transform="translate(0 -175.276)" fill="#717171"/>
      <path id="Path_251" data-name="Path 251" d="M145.1,62.348a2.663,2.663,0,0,1-1.138-2.176v-.759a2.638,2.638,0,0,1,.279-1.181,4.169,4.169,0,0,0-7.4.031,2.8,2.8,0,0,1,.294,1.246v.663a2.664,2.664,0,0,1-1.138,2.177v.182l1.518.38,1.517-.38v-.182a2.663,2.663,0,0,1-1.138-2.176v-.759a2.656,2.656,0,0,1,2.737-2.654,2.725,2.725,0,0,1,2.574,2.75v.663a2.664,2.664,0,0,1-1.138,2.177v.182l1.518.38,1.517-.38Zm0,0" transform="translate(-129.544 -53.345)" fill="#717171"/>
      <path id="Path_252" data-name="Path 252" d="M51.753,234.458l-.865-.5L49.551,239.3l.747.249h.032l1.424-4.984Zm0,0" transform="translate(-47.201 -222.861)" fill="#717171"/>
      <path id="Path_253" data-name="Path 253" d="M152.862,94.143a1.137,1.137,0,0,0-.862,1.1v.112l.217-.048a4.684,4.684,0,0,1,2.43.111l1.717.549a2.366,2.366,0,0,1,.563.081l2.332.666h.232l.094-.049V95.247a1.137,1.137,0,0,0-.862-1.1l-2.172-.543V92.4l.19-.11a1.9,1.9,0,0,0,.949-1.641v-.663a1.961,1.961,0,0,0-1.838-1.991,1.9,1.9,0,0,0-1.955,1.9v.759a1.9,1.9,0,0,0,.949,1.641l.189.109v1.2Zm0,0" transform="translate(-144.793 -83.821)" fill="#717171"/>
      <path id="Path_254" data-name="Path 254" d="M316.707,89.891v.759a1.9,1.9,0,0,0,.949,1.641l.189.109v1.2l-1.3.325a1.888,1.888,0,0,1,.543,1.322v1.022l4.171-2.2-1.9-.473,0-1.2.19-.11a1.9,1.9,0,0,0,.949-1.641v-.663A1.961,1.961,0,0,0,318.662,88a1.9,1.9,0,0,0-1.955,1.9Zm0,0" transform="translate(-301.535 -83.822)" fill="#717171"/>
      <path id="Path_255" data-name="Path 255" d="M92.337,258.853a.782.782,0,0,0-.91-.088l-1.413.847a1.27,1.27,0,0,1-1.924-1.09v-.075a1.264,1.264,0,0,1,.7-1.136l1.894-.947-.559-.179a3.908,3.908,0,0,0-2.035-.092l-2.561.569-1.021,3.575,1.165.7a1.148,1.148,0,0,1,.106-.13l.667-.667a1.181,1.181,0,0,1,2.016.8,1.181,1.181,0,0,1,1.138,1.138,1.181,1.181,0,0,1,1.138,1.138,1.18,1.18,0,0,1,1.018.663l.847.706a.625.625,0,0,0,.4.144.4.4,0,0,0,.253-.7l-2-1.664.486-.583,2.06,1.717a.394.394,0,0,0,.253.092h.083a.4.4,0,0,0,.253-.7l-2-1.664.486-.583,2.057,1.714a.408.408,0,0,0,.261.095h.066a.408.408,0,0,0,.273-.711Zm0,0" transform="translate(-80.505 -243.862)" fill="#717171"/>
      <path id="Path_256" data-name="Path 256" d="M182.542,212.783l-.577-.014-2.384-.681a1.65,1.65,0,0,0-1.182.11l-2.116,1.058a.509.509,0,0,0-.283.458v.075a.512.512,0,0,0,.775.44l1.413-.847a1.526,1.526,0,0,1,1.808.174l3.2,2.884c.023.02.044.041.065.063l6.39-3.2v-4.268Zm0,0" transform="translate(-167.656 -199.128)" fill="#717171"/>
      <path id="Path_257" data-name="Path 257" d="M227.2,443.191a1.175,1.175,0,0,1-.239.352l-.285.285.284.25a.394.394,0,0,0,.261.1h.07a.4.4,0,0,0,.253-.7Zm0,0" transform="translate(-215.933 -422.178)" fill="#717171"/>
      <path id="Path_258" data-name="Path 258" d="M193.092,424a.428.428,0,0,0-.3.124l-.667.667a.425.425,0,0,0,.6.6l.667-.667a.425.425,0,0,0-.3-.726Zm0,0" transform="translate(-182.896 -403.897)" fill="#717171"/>
      <path id="Path_259" data-name="Path 259" d="M145.517,376.425a.425.425,0,0,0-.726-.3l-.667.667a.425.425,0,0,0,.6.6l.667-.667A.428.428,0,0,0,145.517,376.425Zm0,0" transform="translate(-137.173 -358.173)" fill="#717171"/>
      <path id="Path_260" data-name="Path 260" d="M169.517,400.425a.425.425,0,0,0-.726-.3l-.667.667a.425.425,0,0,0,.6.6l.667-.667A.428.428,0,0,0,169.517,400.425Zm0,0" transform="translate(-160.035 -381.035)" fill="#717171"/>
      <path id="Path_261" data-name="Path 261" d="M121.517,352.425a.425.425,0,0,0-.726-.3l-.667.667a.425.425,0,0,0,.6.6l.667-.667A.428.428,0,0,0,121.517,352.425Zm0,0" transform="translate(-114.31 -335.311)" fill="#717171"/>
    </g>
  </g>
</svg>
