<svg id="Layer_2" data-name="Layer 2" xmlns="http://www.w3.org/2000/svg" width="24" height="24" viewBox="0 0 24 24">
  <g id="flag">
    <path id="Path_165" data-name="Path 165" d="M24,24H0V0" fill="#59d6d6" opacity="0"/>
    <path id="Path_166" data-name="Path 166" d="M19.27,4.68a1.79,1.79,0,0,0-1.6-.25,7.53,7.53,0,0,1-2.17.28,8.54,8.54,0,0,1-3.13-.78A10.15,10.15,0,0,0,8.5,3c-2.89,0-4,1-4.2,1.14a1,1,0,0,0-.3.72V20a1,1,0,0,0,2,0V15.7a6.28,6.28,0,0,1,2.5-.41,8.54,8.54,0,0,1,3.13.78A10.15,10.15,0,0,0,15.5,17a7.66,7.66,0,0,0,3.5-.7,1.74,1.74,0,0,0,1-1.55V6.11a1.77,1.77,0,0,0-.73-1.43Z" fill="#59d6d6"/>
  </g>
</svg>
