<svg xmlns="http://www.w3.org/2000/svg" width="27.466" height="24.321" viewBox="0 0 27.466 24.321">
  <g id="photo_1_" data-name="photo(1)" transform="translate(0 -24)">
    <g id="Group_909" data-name="Group 909" transform="translate(0 24)">
      <g id="Group_908" data-name="Group 908" transform="translate(0 0)">
        <circle id="Ellipse_161" data-name="Ellipse 161" cx="1.887" cy="1.887" r="1.887" transform="translate(8.465 6.002)"/>
        <path id="Path_2030" data-name="Path 2030" d="M25.841,38.834a5.811,5.811,0,0,0-3.25-1.546V27.7a3.773,3.773,0,0,0-1.075-2.621A3.662,3.662,0,0,0,18.9,24H3.7a3.773,3.773,0,0,0-2.621,1.075A3.662,3.662,0,0,0,0,27.7V43.341a3.773,3.773,0,0,0,1.075,2.621A3.662,3.662,0,0,0,3.7,47.037H18.4a5.545,5.545,0,0,0,7.443-8.2ZM1.389,27.7a2.194,2.194,0,0,1,.681-1.6A2.3,2.3,0,0,1,3.7,25.415H18.9A2.327,2.327,0,0,1,21.2,27.721V35.9L17.323,32.02a.7.7,0,0,0-1,0L10.483,37.89,6.526,33.906a.7.7,0,0,0-1,0L1.389,38.1Zm2.28,18v-.052a2.3,2.3,0,0,1-1.625-.681,2.392,2.392,0,0,1-.655-1.625v-3.25l4.639-4.665,3.957,3.957a.729.729,0,0,0,1,0l5.844-5.871,3.826,3.853-.236.079a2.434,2.434,0,0,0-.341.1c-.1.026-.21.079-.314.1a.785.785,0,0,0-.21.1,2.434,2.434,0,0,0-.262.131l-.393.236c-.079.052-.131.079-.21.131-.052.026-.079.052-.131.079a3.162,3.162,0,0,0-.629.55A5.544,5.544,0,0,0,16.3,42.817a5.762,5.762,0,0,0,.131,1.153c.026.1.052.183.079.288.079.262.157.524.262.786v.026a4.807,4.807,0,0,0,.341.629Zm21.15,0a4.146,4.146,0,0,1-5.792.052c-.1-.1-.21-.236-.314-.341-.079-.079-.157-.183-.236-.262a2.489,2.489,0,0,1-.262-.446c-.052-.1-.1-.183-.157-.288a2.214,2.214,0,0,1-.131-.446c-.026-.1-.079-.236-.1-.341a4.338,4.338,0,0,1-.079-.839,4.207,4.207,0,0,1,1.206-2.935,4.052,4.052,0,0,1,2.935-1.206,4.207,4.207,0,0,1,2.935,1.206,4.1,4.1,0,0,1,1.206,2.935A4.192,4.192,0,0,1,24.819,45.7Z" transform="translate(0 -24)"/>
        <path id="Path_2031" data-name="Path 2031" d="M301.417,264.61a.916.916,0,0,0-.236-.157.766.766,0,0,0-.236-.052h-.052a.766.766,0,0,0-.236.052.619.619,0,0,0-.236.157l-1.625,1.625a.7.7,0,0,0,1,1l.419-.419v2.883a.708.708,0,1,0,1.415,0v-2.883l.419.419a.7.7,0,0,0,1-1Z" transform="translate(-279.036 -248.649)"/>
      </g>
    </g>
  </g>
</svg>
