<svg xmlns="http://www.w3.org/2000/svg" width="154.094" height="36.784" viewBox="0 0 154.094 36.784">
  <g id="Camada_x0020_1" transform="translate(-745.29 -834.242)">
    <g id="_1852876643136" transform="translate(745.29 834.242)">
      <path id="Path_215" data-name="Path 215" d="M733.5,850l-.539-.673c-.1-.14-.2-.272-.3-.416-.19-.273-.375-.542-.554-.831-.858-1.384-.215-3.393-.133-5.041a35.223,35.223,0,0,0-.353-5.6c-.34-2.183-.794-4.232-2.264-5.817l-.54-.5c-.065-.052-.114-.095-.186-.146a9.512,9.512,0,0,0-1.258-.786l-.469-.23c-1.613-.811-2.547-.4-3.264-1.157a8.21,8.21,0,0,1-1-1.558,7.631,7.631,0,0,1-.714-1.608c-.036-.154-.065-.33-.1-.5a13.682,13.682,0,0,0-.754-2.473c-.034-.083-.058-.119-.1-.2l-.2-.389c-.072-.139-.144-.248-.214-.375s-.152-.243-.221-.367a24.958,24.958,0,0,0-1.534-2.239l-.521-.628c-.051-.054-.089-.1-.141-.151s-.092-.075-.151-.14a2.219,2.219,0,0,0-.484-.389c-.178-.063-.242.111-.3.252-.111.285-.2.588-.287.879l-.141.454-.163.429c-.446-.011-.606-.7-.919-1.043a.506.506,0,0,0-.448-.21c0,.222,0,.44-.017.63l-.1.881a4.97,4.97,0,0,1-.113.872c-.065.164-.191.213-.325.3a5.7,5.7,0,0,0-.748.536,2.1,2.1,0,0,0-.554.722c-.223.6-.022,1.308-.16,1.47a5.393,5.393,0,0,0-.828.774c-.206.307-.064.652.1,1.01-.1.025-1.082.238-1.186.238.1.146.339.049.487.027a3.837,3.837,0,0,1,.6.016l-.322.194c-.112.06-.206.122-.328.187a5.682,5.682,0,0,0-.656.4c.332.083.774-.41,1.447-.41-.055.255-.371.393-.482.5a3.994,3.994,0,0,0,.482-.173c.251.181.306.573.861.759a2.568,2.568,0,0,0,.453.074,3.093,3.093,0,0,1,.9.152c.144.052.246.092.382.15l.369.161c.26.132.014,5.068.113,5.844.027.213.048.379.078.586a18.68,18.68,0,0,0,1.166,4.147c.7,1.747.617,1.063.617,3.4,0,.466.02.863.02,1.318v1.361c0,.246-.021.418-.02.648,0,.529.006.825-.02,1.339-.005.11.008.234,0,.343-.008.08-.031.223-.037.305a5.186,5.186,0,0,1-.5.129c-.986.078-.95,1.437-.5,1.831a9.064,9.064,0,0,0,2.447.156c1.456-.076,1.355-1.545,1.628-3.067.085-.56.3-1.538.356-2.036.018-.155.013-.307.034-.46s.033-.695.063-.926a3.3,3.3,0,0,1,1.25-2.307,5.331,5.331,0,0,1,1.148-.84,1.5,1.5,0,0,1,1.2-.2.633.633,0,0,1,.273.2,9.924,9.924,0,0,1-1.293.706c-.1.054-.163.1-.261.151a3.189,3.189,0,0,0-1.548,1.727,2.742,2.742,0,0,0-.133.721c0,.156-.021.225-.02.389a4.2,4.2,0,0,0,.792,2.54l1,1.061a2.263,2.263,0,0,1,.376.459c-.688.061-2.738-.42-2.837.6-.039.4,0,.8,0,1.213,2.287.572,7.042-.434,9.64.006.188.032.167.047.255.2a18.544,18.544,0,0,0,1.438,2.191c.031.051.053.064.092.117l.729.793a1.427,1.427,0,0,1,.108.1,6.872,6.872,0,0,0,1.107.819c.1.056.175.11.275.158a8.006,8.006,0,0,0,2.592.8,5.306,5.306,0,0,0,2.246-.242,14.92,14.92,0,0,0,2.244-1.205l-.054-.038a14.11,14.11,0,0,0-1.8-1.086c-.159.008-.885.249-1.1.309C736.7,852.816,734.742,851.6,733.5,850Z" transform="translate(-711.1 -817.773)" fill="#59d6d6" fill-rule="evenodd"/>
      <path id="Path_216" data-name="Path 216" d="M1910.528,1099.562c.121-.171.552-.49.832-.876.05-.068.094-.12.146-.189a3.128,3.128,0,0,0,.681-1.385,4.332,4.332,0,0,0,.041-1.3,2.539,2.539,0,0,0-1.632-2.091,3.945,3.945,0,0,1-1.073-.639.535.535,0,0,1,.462-.238,3.069,3.069,0,0,1,1.516.768,3.291,3.291,0,0,1,1.252,1.895c.048.3.139,1.165.146,1.463a13.945,13.945,0,0,0,.314,2.1c.124.529.346,2.24.932,2.238.566,0,1.713.024,2.232-.02.189-.016.168,0,.275-.115a.94.94,0,0,0,.245-.9.663.663,0,0,0-.286-.513,5,5,0,0,0-.732-.207c-.122-.057-.1-.38-.106-.512l-.026-.771c-.043-.335.005-1.959.005-2.4a16.6,16.6,0,0,1,.093-2.73c.033-.1.09-.208.108-.294a18.926,18.926,0,0,0,.776-2.038c.911-2.938.59-4.81.59-7.7,1.25-.711,1.514-.341,2.11-.626a.69.69,0,0,0,.422-.519c.3,0,.333.148.6.216-.055-.254-.169-.25-.351-.379a.17.17,0,0,1-.091-.161l.62.219a2.29,2.29,0,0,0,.626.213c-.233-.374-.712-.448-1.077-.614a.876.876,0,0,0-.169-.077c.049-.072.126-.065.22-.066.314,0,.525.044.845.044-.164-.263-.958-.2-1.045-.346a.775.775,0,0,1,.1-.173c.2-.366-.065-.675-.315-.892l-.3-.257c-.252-.249-.148-.586-.191-.94a1.718,1.718,0,0,0-.1-.452l-.206-.362a2.641,2.641,0,0,0-.906-.732c-.144-.077-.255-.095-.268-.3a9.368,9.368,0,0,0-.281-1.987c-.51.128-.491.942-1.045,1.08-.309-.495-.321-1.222-.623-1.706a.5.5,0,0,0-.387.189,18.074,18.074,0,0,0-1.964,2.468c-.04.061-.077.113-.117.177a7.286,7.286,0,0,0-1.127,2.46,7.448,7.448,0,0,1-.711,2.3,4.633,4.633,0,0,1-1.487,2.074,3,3,0,0,1-.893.272,6.152,6.152,0,0,0-1.754.578,5.5,5.5,0,0,0-1.371.967l-.292.292a7.772,7.772,0,0,0-1.1,1.559l-.462,1.037a10.307,10.307,0,0,0-.419,1.386,17.868,17.868,0,0,0-.394,2.644c-.011.376-.061.774-.06,1.166,0,.2,0,.4,0,.605,0,.107-.02.208-.015.274.007.087.015.186.015.308a19.9,19.9,0,0,0,.363,3.887c.011.084.014.176.028.273.021.153-.03.176.011.29-.02.016-1.042,1.634-1.194,1.849l-.68.824c-1.115,1.2-2.426,2.062-4.1,1.608a9.867,9.867,0,0,1-.981-.307c-.024-.01-.041-.016-.073-.029-.21-.11-.554-.129-.883-.3l-.505-.3c-.075-.046-.144-.055-.132-.123l-.79-.527a15.926,15.926,0,0,1-1.3-1.023l-1.2-1.135c-.058-.052-.107-.113-.162-.172l-.843-.995c-.033-.041-.036-.053-.072-.1a13.505,13.505,0,0,1-.943-1.405,5.86,5.86,0,0,1-.918-4.278,3.09,3.09,0,0,1,.434-.916,2.961,2.961,0,0,1,2.059-1.244,2.486,2.486,0,0,1,.61,0,2.857,2.857,0,0,1,1.893,1,6.207,6.207,0,0,1,.787,1.422,1.185,1.185,0,0,0,.146.318l.155.132,0-2.916c.055.009.015.006.031-.022l-.995-.857a4.226,4.226,0,0,0-4.853.17,4.781,4.781,0,0,0-.722.671l-.215.266a5.039,5.039,0,0,0-.9,3.748,10.851,10.851,0,0,0,2.123,4.716c.036.05.059.09.095.135l.622.779a16.881,16.881,0,0,0,1.388,1.424c.042.038.078.067.123.105a28.56,28.56,0,0,0,3.7,2.671,1.936,1.936,0,0,0,.292.14l.711.359a5.328,5.328,0,0,0,1.023.412,3.709,3.709,0,0,0,1.576.1,6.981,6.981,0,0,0,1.952-.559,4.842,4.842,0,0,0,.9-.547c.143-.1.269-.208.4-.325.065-.057.129-.1.19-.163l.966-1.035c.034-.044.051-.054.086-.1.19-.261.276-.356.459-.652a6.9,6.9,0,0,0,.471-.941c.106-.18,1.13-.124,1.33-.106.409.036.979,0,1.406,0,1.874,0,3.717.021,5.606.021,0-.343.075-1.2-.126-1.419s-1.03-.136-1.32-.136h-.985A.408.408,0,0,1,1910.528,1099.562Z" transform="translate(-1864.993 -1069.411)" fill="#d75b84" fill-rule="evenodd"/>
      <path id="Path_217" data-name="Path 217" d="M2292.481,1865.48c-.016.028.024.031-.031.022l0,2.916c.042.027,0,.022.084.022.025-.1.079-.062.193-.224.17-.243.344-.854.711-1.417.023-.036.057-.086.086-.123a2.9,2.9,0,0,1,4.8.253,3.88,3.88,0,0,1,.135,3.493l-.247.62a3.288,3.288,0,0,1-.2.43c-.031.061-.042.1-.076.157-.252.455-.349.63-.635,1.067l-.827,1.1a13.285,13.285,0,0,1-.9,1c-.085.07-.135.145-.216.221-.046.044-.063.048-.111.1l-.21.206c-.049.052-.071.059-.121.108a17.5,17.5,0,0,1-1.874,1.506,2.124,2.124,0,0,0-.448.411c-.012.068.057.077.132.123l.505.3a2.036,2.036,0,0,0,.781.323c.142,0,.172-.072.355-.185a8.933,8.933,0,0,0,1.031-.793l.474-.441c.2-.174.589-.607.7-.7s.3-.342.446-.493c.281-.3.533-.636.743-.864a14.318,14.318,0,0,0,1.426-2.075l.083-.148a8.084,8.084,0,0,0,.986-3.045,5.632,5.632,0,0,0-.772-3.44,4.406,4.406,0,0,0-1.122-1.192,3.547,3.547,0,0,0-.583-.345,4.35,4.35,0,0,0-4.288.276,4.037,4.037,0,0,0-.752.617A1.057,1.057,0,0,1,2292.481,1865.48Z" transform="translate(-2262.375 -1844.034)" fill="#5bd5d6" fill-rule="evenodd"/>
      <path id="Path_218" data-name="Path 218" d="M759.593,1296.89l-.043.012Z" transform="translate(-758.628 -1287.778)" fill="#58d5d5" fill-rule="evenodd"/>
    </g>
    <g id="Group_163" data-name="Group 163" transform="translate(-3 0)">
      <text id="_248" data-name="248" transform="translate(896.384 858.525)" fill="#2b2b2b" font-size="3" font-family="ArialMT, Arial"><tspan x="0" y="0">248</tspan></text>
      <g id="_1852876643280" transform="translate(810.746 852.633)">
        <g id="Group_161" data-name="Group 161" transform="translate(0 0)">
          <text id="JAMES" transform="translate(0 14)" fill="#2b2b2b" font-size="16" font-family="Arial-BoldMT, Arial" font-weight="700"><tspan x="0" y="0">JAMES</tspan></text>
        </g>
        <g id="Group_162" data-name="Group 162" transform="translate(58.638 3.182)">
          <text id="CLUB" transform="translate(0 9)" fill="#2b2b2b" font-size="10" font-family="ArialMT, Arial"><tspan x="0" y="0">CLUB</tspan></text>
        </g>
      </g>
    </g>
  </g>
</svg>
