<svg id="Layer_2" data-name="Layer 2" xmlns="http://www.w3.org/2000/svg" width="24" height="27" viewBox="0 0 24 27">
  <g id="log-out">
    <rect id="Rectangle_35" data-name="Rectangle 35" width="27" height="24" transform="translate(24) rotate(90)" fill="#59d6d6" opacity="0"/>
    <path id="Path_172" data-name="Path 172" d="M7,6.375A1.106,1.106,0,0,0,8,5.188,1.106,1.106,0,0,0,7,4H5A1.106,1.106,0,0,0,4,5.188V21.813A1.106,1.106,0,0,0,5,23H7a1.205,1.205,0,0,0,0-2.375H6V6.375Z" fill="#59d6d6"/>
    <path id="Path_173" data-name="Path 173" d="M20.82,11.42,18,7.42a1,1,0,1,0-1.63,1.16L18.09,11H10a1,1,0,0,0,0,2h8l-1.8,2.4a1,1,0,0,0,1.6,1.2l3-4a1,1,0,0,0,.02-1.18Z" transform="translate(0 1.5)" fill="#59d6d6"/>
  </g>
</svg>
