<svg xmlns="http://www.w3.org/2000/svg" width="24" height="24" viewBox="0 0 24 24">
  <g id="giftbox_2_" data-name="giftbox(2)" transform="translate(0 -0.448)">
    <g id="Group_916" data-name="Group 916" transform="translate(0 0.448)">
      <g id="Group_915" data-name="Group 915" transform="translate(0 0)">
        <path id="Path_2034" data-name="Path 2034" d="M22.435,4.951H20.688a2.634,2.634,0,0,0,.426-1.168A2.967,2.967,0,0,0,19.283.712a3.146,3.146,0,0,0-3.344.521L13.733,3.167a2.4,2.4,0,0,0-3.467,0L8.056,1.232A3.148,3.148,0,0,0,4.711.712a2.967,2.967,0,0,0-1.83,3.072,2.634,2.634,0,0,0,.426,1.167H1.565A1.541,1.541,0,0,0,0,6.466V8.738A.77.77,0,0,0,.783,9.5H23.217A.77.77,0,0,0,24,8.738V6.466A1.541,1.541,0,0,0,22.435,4.951ZM9.652,4.7v.252H5.97a1.507,1.507,0,0,1-1.5-1.858,1.5,1.5,0,0,1,.845-.986,1.545,1.545,0,0,1,1.685.247L9.653,4.677C9.653,4.684,9.652,4.692,9.652,4.7Zm9.908-1.117a1.568,1.568,0,0,1-1.609,1.369h-3.6V4.7c0-.009,0-.018,0-.027l2.606-2.286a1.6,1.6,0,0,1,1.481-.366A1.477,1.477,0,0,1,19.561,3.582Z" transform="translate(0 -0.448)" fill="#717171"/>
      </g>
    </g>
    <g id="Group_918" data-name="Group 918" transform="translate(1.515 11.825)">
      <g id="Group_917" data-name="Group 917">
        <path id="Path_2035" data-name="Path 2035" d="M33.391,233.291V244.4a1.515,1.515,0,0,0,1.515,1.515h7.069V233.291Z" transform="translate(-33.391 -233.291)" fill="#717171"/>
      </g>
    </g>
    <g id="Group_920" data-name="Group 920" transform="translate(13.902 11.825)">
      <g id="Group_919" data-name="Group 919">
        <path id="Path_2036" data-name="Path 2036" d="M289.391,233.291v12.623h7.069a1.515,1.515,0,0,0,1.515-1.515V233.291Z" transform="translate(-289.391 -233.291)" fill="#717171"/>
      </g>
    </g>
  </g>
</svg>
