<svg xmlns="http://www.w3.org/2000/svg" width="24" height="24" viewBox="0 0 24 24">
  <g id="Group_905" data-name="Group 905" transform="translate(-2368 -794)">
    <rect id="Rectangle_470" data-name="Rectangle 470" width="24" height="24" transform="translate(2368 794)" fill="none"/>
    <g id="customer-review" transform="translate(2369.466 799.876)">
      <path id="Path_2026" data-name="Path 2026" d="M191.882,1.438a8.562,8.562,0,0,0-9.5,0,4.569,4.569,0,0,0-2.075,3.682,4.509,4.509,0,0,0,1.86,3.51,7.815,7.815,0,0,0,4.177,1.571,15.777,15.777,0,0,0,4.429,2.007,1.055,1.055,0,0,0,.286.04,1.072,1.072,0,0,0,.721-1.866,4.121,4.121,0,0,1-.852-1,6.088,6.088,0,0,0,2.054-1.609,4.228,4.228,0,0,0,.972-2.653,4.569,4.569,0,0,0-2.075-3.682Zm-2.466,5.422h-4.566a.618.618,0,1,1,0-1.235h4.566a.618.618,0,1,1,0,1.235Zm0-2.068h-4.566a.618.618,0,0,1,0-1.235h4.566a.618.618,0,0,1,0,1.235Zm0,0" transform="translate(-172.888 0)" fill="#717171"/>
      <path id="Path_2027" data-name="Path 2027" d="M6.19,54.349a5.3,5.3,0,0,1,.8-2.783,7.435,7.435,0,0,0-1.36-.125,6.682,6.682,0,0,0-3.907,1.184A3.806,3.806,0,0,0,0,55.7a3.533,3.533,0,0,0,.808,2.214A4.983,4.983,0,0,0,2.4,59.186a3.6,3.6,0,0,1-.6.673.985.985,0,0,0,.664,1.713.97.97,0,0,0,.264-.036,12.945,12.945,0,0,0,3.588-1.62,6.735,6.735,0,0,0,2.612-.766q-.16-.115-.314-.237A5.863,5.863,0,0,1,6.19,54.349Zm0,0" transform="translate(0 -49.324)" fill="#717171"/>
    </g>
  </g>
</svg>
