<svg id="trash-2" xmlns="http://www.w3.org/2000/svg" width="24" height="24" viewBox="0 0 24 24">
  <rect id="Rectangle_230" data-name="Rectangle 230" width="24" height="24" fill="#717171" opacity="0"/>
  <path id="Path_273" data-name="Path 273" d="M21,6H16V4.33A2.42,2.42,0,0,0,13.5,2h-3A2.42,2.42,0,0,0,8,4.33V6H3A1,1,0,0,0,3,8H4V19a3,3,0,0,0,3,3H17a3,3,0,0,0,3-3V8h1a1,1,0,0,0,0-2ZM10,16a1,1,0,0,1-2,0V12a1,1,0,0,1,2,0ZM10,4.33c0-.16.21-.33.5-.33h3c.29,0,.5.17.5.33V6H10ZM16,16a1,1,0,0,1-2,0V12a1,1,0,0,1,2,0Z" fill="#717171"/>
</svg>
