<svg xmlns="http://www.w3.org/2000/svg" width="18" height="18" viewBox="0 0 18 18">
  <g id="Layer_2" data-name="Layer 2" transform="translate(0.469 -1)">
    <g id="trash-2" transform="translate(-0.469 1)">
      <rect id="Rectangle_166" data-name="Rectangle 166" width="18" height="18" opacity="0"/>
      <path id="Path_224" data-name="Path 224" d="M14.929,5.122h-3.4v-1.3A1.76,1.76,0,0,0,9.825,2H7.784a1.76,1.76,0,0,0-1.7,1.818v1.3H2.68A.736.736,0,0,0,2,5.9a.736.736,0,0,0,.68.78h.68v8.585A2.207,2.207,0,0,0,5.4,17.609h6.8a2.207,2.207,0,0,0,2.041-2.341V6.682h.68a.736.736,0,0,0,.68-.78A.736.736,0,0,0,14.929,5.122Zm-7.485,7.8a.736.736,0,0,1-.68.78.736.736,0,0,1-.68-.78V9.8a.736.736,0,0,1,.68-.78.736.736,0,0,1,.68.78Zm0-9.108a.314.314,0,0,1,.34-.258H9.825a.314.314,0,0,1,.34.258v1.3H7.444Zm4.083,9.108a.687.687,0,1,1-1.361,0V9.8a.687.687,0,1,1,1.361,0Z" transform="translate(-0.07 -1.57)"/>
    </g>
  </g>
</svg>
