<svg xmlns="http://www.w3.org/2000/svg" width="24" height="24" viewBox="0 0 24 24">
  <g id="Group_205" data-name="Group 205" transform="translate(-58 -440)">
    <rect id="Rectangle_204" data-name="Rectangle 204" width="24" height="24" transform="translate(58 440)" fill="none"/>
    <g id="approval-symbol-in-badge" transform="translate(59.631 441.614)">
      <path id="Path_245" data-name="Path 245" d="M20.637,11.073,19.414,9.145l.725-2.164a.654.654,0,0,0-.294-.774l-1.978-1.14L17.5,2.814a.657.657,0,0,0-.62-.55L14.6,2.175,13.234.348a.653.653,0,0,0-.8-.2l-2.061.98L8.308.15a.656.656,0,0,0-.8.2L6.135,2.175l-2.281.089a.654.654,0,0,0-.62.549L2.87,5.066.892,6.206A.655.655,0,0,0,.6,6.981l.725,2.164L.1,11.073a.655.655,0,0,0,.1.822l1.647,1.58-.185,2.274a.655.655,0,0,0,.47.682l2.193.632.892,2.1a.652.652,0,0,0,.733.385l2.237-.459,1.765,1.446a.654.654,0,0,0,.829,0l1.765-1.446,2.237.459a.653.653,0,0,0,.733-.385l.892-2.1,2.193-.632a.654.654,0,0,0,.47-.682l-.185-2.274,1.647-1.58A.655.655,0,0,0,20.637,11.073ZM15.1,7.926l-4.579,6.861a.9.9,0,0,1-.707.427,1.146,1.146,0,0,1-.752-.339L5.7,11.459a.6.6,0,0,1,0-.845l.83-.845a.585.585,0,0,1,.83,0l2.188,2.223,3.608-5.406a.582.582,0,0,1,.816-.158l.973.669A.6.6,0,0,1,15.1,7.926Z" transform="translate(0)" fill="#717171"/>
    </g>
  </g>
</svg>
