<svg xmlns="http://www.w3.org/2000/svg" width="24" height="24" viewBox="0 0 24 24">
  <g id="Group_895" data-name="Group 895" transform="translate(-2310 -1013)">
    <rect id="Rectangle_463" data-name="Rectangle 463" width="24" height="24" transform="translate(2310 1013)" fill="none"/>
    <g id="browser_1_" data-name="browser(1)" transform="translate(2310.744 1015.524)">
      <path id="Path_2014" data-name="Path 2014" d="M20.887,40.484H1.625A1.625,1.625,0,0,0,0,42.109v2.968H22.512V42.109A1.625,1.625,0,0,0,20.887,40.484Zm-18.07,3a.705.705,0,1,1,.705-.705A.706.706,0,0,1,2.818,43.481Zm2.869,0a.705.705,0,1,1,.705-.705A.706.706,0,0,1,5.686,43.481Zm3,0a.705.705,0,1,1,.705-.705A.706.706,0,0,1,8.685,43.481Z" transform="translate(0 -40.484)" fill="#717171"/>
      <path id="Path_2015" data-name="Path 2015" d="M0,176.808v11.333a1.625,1.625,0,0,0,1.625,1.625H20.887a1.625,1.625,0,0,0,1.625-1.625V176.808Zm7.42,5.232L6.5,184.709a.7.7,0,0,1-.651.473H5.839a.7.7,0,0,1-.654-.45l-.331-.866-.29.843a.7.7,0,0,1-.651.473H3.9a.7.7,0,0,1-.654-.45l-1.021-2.669a.7.7,0,1,1,1.309-.5l.331.866.29-.844a.7.7,0,0,1,1.317-.023l.331.866.29-.844a.7.7,0,0,1,1.326.456Zm6.438,0-.917,2.669a.7.7,0,0,1-.651.473h-.012a.7.7,0,0,1-.654-.45l-.331-.866-.29.843a.7.7,0,0,1-.651.473h-.012a.7.7,0,0,1-.654-.45l-1.021-2.669a.7.7,0,1,1,1.309-.5l.331.866.29-.844a.708.708,0,0,1,1.317-.023l.331.866.29-.844a.7.7,0,0,1,1.326.456Zm6.438,0-.917,2.669a.7.7,0,0,1-.651.473h-.012a.7.7,0,0,1-.654-.45l-.331-.866-.29.843a.7.7,0,0,1-.651.473h-.012a.7.7,0,0,1-.654-.45L15.1,182.063a.7.7,0,0,1,1.309-.5l.332.866.29-.844a.7.7,0,0,1,1.317-.023l.331.866.29-.844a.7.7,0,0,1,1.326.456Z" transform="translate(0 -170.814)" fill="#717171"/>
    </g>
  </g>
</svg>
